<svg width="25" height="24" viewBox="0 0 25 24" fill="none" xmlns="http://www.w3.org/2000/svg">
<path d="M21.7127 23.6245L14.0654 15.9772C13.3826 16.5235 12.5974 16.9559 11.7098 17.2745C10.8222 17.5932 9.87767 17.7525 8.87624 17.7525C6.39545 17.7525 4.2961 16.8931 2.57821 15.1743C0.860313 13.4555 0.000910384 11.3561 0 8.87624C0 6.39545 0.859403 4.2961 2.57821 2.57821C4.29701 0.860313 6.39636 0.000910384 8.87624 0C11.357 0 13.4564 0.859403 15.1743 2.57821C16.8922 4.29701 17.7516 6.39636 17.7525 8.87624C17.7525 9.87767 17.5932 10.8222 17.2745 11.7098C16.9559 12.5974 16.5235 13.3826 15.9772 14.0654L23.6586 21.7468C23.909 21.9972 24.0341 22.3044 24.0341 22.6686C24.0341 23.0327 23.8976 23.3513 23.6245 23.6245C23.3741 23.8748 23.0555 24 22.6686 24C22.2816 24 21.963 23.8748 21.7127 23.6245ZM8.87624 15.0213C10.5832 15.0213 12.0344 14.4237 13.2297 13.2283C14.425 12.033 15.0222 10.5823 15.0213 8.87624C15.0213 7.16927 14.4237 5.71812 13.2283 4.52279C12.033 3.32745 10.5823 2.73024 8.87624 2.73115C7.16927 2.73115 5.71812 3.32882 4.52279 4.52415C3.32745 5.71949 2.73024 7.17018 2.73115 8.87624C2.73115 10.5832 3.32882 12.0344 4.52415 13.2297C5.71949 14.425 7.17018 15.0222 8.87624 15.0213Z" fill="#020617"/>
</svg>
