<svg width="45" height="45" viewBox="0 0 45 45" fill="none" xmlns="http://www.w3.org/2000/svg">
<path d="M22.5 0C19.5453 0 16.6194 0.58198 13.8896 1.71271C11.1598 2.84344 8.67942 4.50078 6.5901 6.5901C2.37053 10.8097 0 16.5326 0 22.5C0 28.4674 2.37053 34.1903 6.5901 38.4099C8.67942 40.4992 11.1598 42.1566 13.8896 43.2873C16.6194 44.418 19.5453 45 22.5 45C28.4674 45 34.1903 42.6295 38.4099 38.4099C42.6295 34.1903 45 28.4674 45 22.5C45 19.5453 44.418 16.6194 43.2873 13.8896C42.1566 11.1598 40.4992 8.67942 38.4099 6.5901C36.3206 4.50078 33.8402 2.84344 31.1104 1.71271C28.3806 0.58198 25.4547 0 22.5 0ZM11.4075 36.63C12.375 34.605 18.27 32.625 22.5 32.625C26.73 32.625 32.625 34.605 33.5925 36.63C30.4411 39.1411 26.5295 40.5058 22.5 40.5C18.315 40.5 14.4675 39.06 11.4075 36.63ZM36.81 33.3675C33.5925 29.4525 25.785 28.125 22.5 28.125C19.215 28.125 11.4075 29.4525 8.19 33.3675C5.79642 30.2504 4.49925 26.4301 4.5 22.5C4.5 12.5775 12.5775 4.5 22.5 4.5C32.4225 4.5 40.5 12.5775 40.5 22.5C40.5 26.595 39.105 30.375 36.81 33.3675ZM22.5 9C18.135 9 14.625 12.51 14.625 16.875C14.625 21.24 18.135 24.75 22.5 24.75C26.865 24.75 30.375 21.24 30.375 16.875C30.375 12.51 26.865 9 22.5 9ZM22.5 20.25C21.6049 20.25 20.7464 19.8944 20.1135 19.2615C19.4806 18.6286 19.125 17.7701 19.125 16.875C19.125 15.9799 19.4806 15.1214 20.1135 14.4885C20.7464 13.8556 21.6049 13.5 22.5 13.5C23.3951 13.5 24.2536 13.8556 24.8865 14.4885C25.5194 15.1214 25.875 15.9799 25.875 16.875C25.875 17.7701 25.5194 18.6286 24.8865 19.2615C24.2536 19.8944 23.3951 20.25 22.5 20.25Z" fill="#020617"/>
</svg>
